<svg width="69" height="9" viewBox="0 0 69 9" fill="none" xmlns="http://www.w3.org/2000/svg">
<path d="M0.686523 4.16992C0.410381 4.16992 0.186523 4.39378 0.186523 4.66992C0.186523 4.94606 0.410381 5.16992 0.686523 5.16992L0.686523 4.16992ZM67.9423 5.02348C68.1375 4.82821 68.1375 4.51163 67.9423 4.31637L64.7603 1.13439C64.565 0.939126 64.2484 0.939126 64.0532 1.13439C63.8579 1.32965 63.8579 1.64623 64.0532 1.84149L66.8816 4.66992L64.0532 7.49835C63.8579 7.69361 63.8579 8.01019 64.0532 8.20546C64.2484 8.40072 64.565 8.40072 64.7603 8.20546L67.9423 5.02348ZM0.686523 5.16992H67.5887V4.16992H0.686523L0.686523 5.16992Z" fill="#FF2525"/>
</svg>
